<svg width="8" height="9" viewBox="0 0 8 9" fill="none" xmlns="http://www.w3.org/2000/svg">
<path d="M7.4678 4.40773C7.56457 4.55203 7.62909 4.71236 7.61296 4.88872C7.5807 5.11318 7.43554 5.3216 7.27425 5.49797C6.40328 6.5401 5.53231 7.58223 4.4678 8.41594C3.93554 8.83279 3.48392 8.83279 3.03231 8.33577C2.17747 7.4219 1.3065 6.492 0.451665 5.57813C0.241988 5.35367 0.0161814 5.09714 0.0323104 4.79252C0.0484395 4.51996 0.258117 4.2955 0.451665 4.08708C1.40328 3.12511 2.37102 2.16314 3.32263 1.20117C3.4678 1.05687 3.62909 0.896546 3.83876 0.880513C4.16134 0.848448 4.40328 1.15307 4.61296 1.3615C5.0807 1.85852 5.53231 2.3876 6.00005 2.88462C6.32264 3.2213 6.64522 3.55799 6.9678 3.89468C7.11296 4.05501 7.33876 4.21534 7.4678 4.40773Z" fill="#3C4230"/>
</svg>
