<svg width="44" height="43" viewBox="0 0 44 43" fill="none" xmlns="http://www.w3.org/2000/svg">
<path d="M43.1129 2.4571C43.0645 2.72966 42.9032 3.00222 42.629 3.25874C39.4194 6.22481 36.2419 9.23898 33.0645 12.2531C31.4516 13.7923 29.8548 15.3475 28.2742 16.9187C27.4677 17.7364 26.6613 18.554 25.871 19.3717C25.129 20.1413 24.4516 20.51 25.2903 21.4239C26.4839 22.7226 27.7097 24.0052 28.9194 25.2878C31.3387 27.8691 33.7419 30.4344 36.1613 33.0156C37.7097 34.667 39.2581 36.3184 40.7903 37.9537C41.4032 38.6111 42.0484 39.3005 42.2742 40.1663C42.5 41.032 42.1935 42.1223 41.3387 42.4429C40.2742 42.8437 39.2097 41.8818 38.4677 41.016C34.1774 36.0298 29.6129 31.252 24.7903 26.7628C24.2097 26.2177 23.6129 25.6726 23.0323 25.1435C22.4677 24.6305 22.0484 23.9411 21.2419 24.4221C19.9032 25.2237 18.6774 26.8751 17.5806 27.9653C15.1613 30.3702 12.8065 32.8393 10.4516 35.2923C9 36.8154 7.53226 38.3385 6.04839 39.8456C5.19355 40.7114 4.2742 41.6092 3.09678 41.8818C1.91936 42.1543 0.435487 41.4649 0.322584 40.2625C0.241939 39.3646 0.935486 38.5951 1.58065 37.9377C6.69355 32.7912 11.371 26.9713 17.1935 22.5783C17.5645 22.2897 17.9677 22.0011 18.1936 21.5842C18.8065 20.462 17.5161 19.9008 16.8548 19.2755C16.3387 18.7785 15.8387 18.2815 15.3226 17.7845C11.2419 13.8244 7.16129 9.86426 3.06452 5.90416C2.22581 5.10252 1.12903 4.04435 1.09678 2.79379C1.06452 1.79976 1.75807 0.308708 2.8871 0.244577C3.93549 0.180446 4.79033 1.30274 5.45162 1.94405C9.46774 5.85606 13.4839 9.7841 17.5 13.6961C18.4839 14.6581 19.4839 15.604 20.4516 16.566C20.8871 17.0149 21.4355 17.8646 22.1935 17.7043C23.3871 17.4638 24.129 16.1812 24.871 15.3314C25.8871 14.1931 26.9194 13.0869 27.9839 11.9966C30.9194 9.01452 34.0645 6.27291 37.129 3.43511C38.5806 2.07232 40.5323 0.613332 42.371 1.36687C42.9677 1.60737 43.1935 2.02422 43.1129 2.4571Z" fill="#3C4230"/>
</svg>
