<svg width="21" height="21" viewBox="0 0 21 21" fill="none" xmlns="http://www.w3.org/2000/svg">
<path d="M10.3709 20.8293C9.53221 20.8293 8.90318 20.1559 8.45156 19.6749L8.32253 19.5467C7.72575 18.9214 7.12898 18.2641 6.56446 17.6388C6.03221 17.0456 5.48382 16.4363 4.91931 15.8431C4.48382 15.3781 4.01608 14.9132 3.58059 14.4643C3.22575 14.1116 2.88705 13.7588 2.54834 13.3901C2.43543 13.2618 2.3064 13.1496 2.16124 13.0213C1.85479 12.7327 1.53221 12.4281 1.27414 12.0754C0.935434 11.6104 0.806401 11.1294 0.854788 10.6485C0.935433 9.94302 1.40318 9.38187 1.75801 8.96502C3.85479 6.4639 6.01608 3.88262 8.66124 1.81439C10.1451 0.660024 11.4677 0.724156 12.6935 2.03885L19 8.75659C19.4354 9.22154 20.1612 9.99112 20.1129 10.9371C20.0806 11.7387 19.5322 12.3479 18.9838 12.9091L12 19.9635C11.6774 20.3002 11.1774 20.7972 10.5161 20.8453C10.4677 20.8293 10.4193 20.8293 10.3709 20.8293ZM10.6451 1.75026C10.1774 1.75026 9.6935 1.97471 9.14511 2.4076C6.56446 4.42773 4.43543 6.97695 2.35479 9.446C2.06446 9.79873 1.67737 10.2476 1.62898 10.7126C1.59672 11.0012 1.6935 11.2898 1.9193 11.6104C2.12898 11.899 2.4193 12.1876 2.70963 12.4441C2.85479 12.5724 2.99995 12.7167 3.12898 12.845C3.46769 13.1977 3.82253 13.5504 4.16124 13.9031C4.59672 14.352 5.06446 14.817 5.49995 15.298C6.06446 15.8912 6.61285 16.5165 7.16124 17.1097C7.72576 17.735 8.3064 18.3923 8.90317 19.0016L9.03221 19.1459C9.45156 19.5948 9.93543 20.1078 10.4677 20.0597C10.8225 20.0277 11.1451 19.723 11.4677 19.4024L18.4516 12.3479C18.9193 11.883 19.3387 11.418 19.3548 10.889C19.387 10.3118 18.9193 9.76666 18.4516 9.26964L12.129 2.5519C11.629 2.02281 11.1451 1.75026 10.6451 1.75026Z" fill="#3C4230"/>
</svg>
