<svg width="30" height="31" viewBox="0 0 30 31" fill="none" xmlns="http://www.w3.org/2000/svg">
<path d="M14.4678 30.6871C13.4194 30.6871 12.4033 30.174 11.4517 29.1479L1.69359 18.7426C0.790366 17.8127 -0.0483437 16.7866 4.33587e-05 15.52C0.0484305 14.3657 0.871011 13.4518 1.69359 12.6181L12.5162 1.69974C13 1.21876 13.7259 0.481251 14.6775 0.385054C15.9839 0.272824 16.9355 1.28289 17.7097 2.10057C17.7742 2.1647 17.8388 2.24486 17.9033 2.30899C18.8226 3.27096 19.742 4.28103 20.6129 5.25903C21.4355 6.1729 22.2904 7.13487 23.1613 8.04874C23.8388 8.77022 24.5484 9.49169 25.242 10.1811C25.7742 10.7262 26.3226 11.2874 26.8549 11.8325C27.0323 12.0249 27.242 12.2173 27.4678 12.4257C27.9355 12.8746 28.4355 13.3396 28.8065 13.8686C29.2904 14.5581 29.5 15.2314 29.4194 15.9208C29.3065 16.9469 28.6291 17.7486 28.0807 18.4059C24.8388 22.2698 21.4839 26.278 17.4194 29.4525C16.371 30.2702 15.4033 30.6871 14.4678 30.6871ZM14.8871 1.1386C14.8388 1.1386 14.8065 1.1386 14.7581 1.1386C14.1452 1.18669 13.6129 1.68371 13.0807 2.22883L2.25811 13.1472C1.50004 13.9007 0.822624 14.6543 0.790366 15.5521C0.741979 16.5301 1.48391 17.3959 2.25811 18.2135L12.0162 28.6188C13.5807 30.2702 15.0484 30.3504 16.9355 28.8754C20.9517 25.749 24.2742 21.7728 27.4839 17.941C27.9678 17.3638 28.5646 16.6584 28.6452 15.8727C28.6936 15.3597 28.5484 14.8787 28.1775 14.3336C27.8388 13.8686 27.3871 13.4197 26.9355 13.0029C26.7097 12.7944 26.5 12.586 26.3065 12.3936C25.7742 11.8485 25.242 11.2874 24.7097 10.7423C24.0162 10.0368 23.3226 9.31533 22.6291 8.59385C21.7581 7.67998 20.9033 6.71802 20.0646 5.78811C19.1936 4.81011 18.2904 3.81608 17.371 2.85411C17.3065 2.78998 17.242 2.70981 17.1775 2.64568C16.5 1.9242 15.7581 1.1386 14.8871 1.1386Z" fill="#3C4230"/>
</svg>
