<svg width="21" height="20" viewBox="0 0 21 20" fill="none" xmlns="http://www.w3.org/2000/svg">
<path d="M10.0161 19.3802C9.95163 19.3802 9.88711 19.3802 9.8226 19.3642C9.11292 19.284 8.5484 18.8191 8.12905 18.4664C5.61292 16.3821 3.01614 14.2337 0.9355 11.6043C-0.22579 10.1293 -0.161274 8.81462 1.16131 7.59613L7.91937 1.3273C8.38711 0.894416 9.1613 0.17294 10.1129 0.221038C10.9839 0.253104 11.6452 0.910449 12.0968 1.34333L19.1936 8.28554C19.5323 8.6062 20.0323 9.10321 20.0807 9.76056C20.1613 10.6584 19.4516 11.3318 18.9194 11.8128L18.7903 11.941C18.1613 12.5342 17.5 13.1274 16.871 13.6886C16.2742 14.2177 15.6613 14.7628 15.0645 15.3239C14.5968 15.7568 14.129 16.2218 13.6774 16.6547C13.3226 17.0074 12.9678 17.3441 12.6129 17.6808C12.4839 17.793 12.371 17.9213 12.242 18.0656C11.9516 18.3702 11.6452 18.6908 11.2903 18.9474C10.8387 19.2359 10.4355 19.3802 10.0161 19.3802ZM10.0323 0.990613C9.46776 0.990613 8.9355 1.43953 8.45163 1.88845L1.69356 8.15728C0.661306 9.10321 0.629048 9.96898 1.5484 11.1394C3.58066 13.7046 6.14518 15.821 8.62905 17.8892C8.98389 18.1938 9.4355 18.5626 9.90324 18.6107C10.1936 18.6427 10.4839 18.5465 10.8065 18.3221C11.0968 18.1137 11.3871 17.8251 11.6452 17.5365C11.7742 17.3922 11.9194 17.2479 12.0484 17.1196C12.4032 16.7829 12.7581 16.4302 13.1129 16.0935C13.5645 15.6606 14.0323 15.1957 14.5161 14.7628C15.1129 14.2016 15.742 13.6565 16.3387 13.1114C16.9678 12.5503 17.629 11.9731 18.242 11.3799L18.3871 11.2516C18.8387 10.8348 19.3549 10.3538 19.3065 9.82469C19.2742 9.47197 18.9678 9.15131 18.6452 8.83065L11.5484 1.88845C11.0807 1.4235 10.6129 1.00665 10.0807 0.990613C10.0645 0.990613 10.0484 0.990613 10.0323 0.990613Z" fill="#3C4230"/>
</svg>
