<svg width="9" height="9" viewBox="0 0 9 9" fill="none" xmlns="http://www.w3.org/2000/svg">
<path d="M4.87104 8.25595C4.72588 8.35215 4.56459 8.41628 4.38717 8.40024C4.16137 8.36818 3.95169 8.22388 3.77427 8.06356C2.72588 7.19778 1.6775 6.33201 0.838791 5.27385C0.419436 4.74476 0.419436 4.29585 0.919436 3.84693C1.83879 2.99719 2.77427 2.13142 3.69362 1.28168C3.91943 1.07325 4.1775 0.848792 4.48395 0.864825C4.75814 0.880858 4.98395 1.08928 5.19362 1.28168C6.16136 2.22761 7.12911 3.18958 8.09685 4.13552C8.24201 4.27981 8.4033 4.44014 8.41943 4.64857C8.45168 4.96922 8.14523 5.20972 7.93556 5.41814C7.43556 5.88309 6.9033 6.33201 6.4033 6.79696C6.06459 7.11762 5.72588 7.43828 5.38717 7.75893C5.22588 7.91926 5.06459 8.12769 4.87104 8.25595Z" fill="#3C4230"/>
</svg>
