<svg width="25" height="15" viewBox="0 0 25 15" fill="none" xmlns="http://www.w3.org/2000/svg">
<path d="M12.1613 14.6801C12.129 14.6801 12.0806 14.6801 12.0484 14.6641C11.7742 14.616 11.5806 14.4236 11.4839 14.3113C10.3871 13.1249 9.24194 11.9385 8.12903 10.8001C5.77419 8.36316 3.35484 5.82998 1.14516 3.21663C0.758061 2.75168 0.677416 2.2226 0.95161 1.88591C1.06451 1.75764 1.27419 1.58128 1.67742 1.56525L4.79032 1.40492C5.27419 1.38889 5.82258 1.35682 6.35484 1.51715C7.32258 1.80574 8 2.65548 8.48387 3.28076L12.2903 8.10664C12.3548 8.1868 12.5323 8.41126 12.629 8.41126C12.7258 8.41126 12.8871 8.25093 12.9516 8.1868C15 6.1346 16.7742 4.1786 18.371 2.20656L18.3871 2.19053C18.6613 1.85384 18.9516 1.50112 19.3548 1.24459C19.8871 0.907905 20.5161 0.939971 21.0645 0.972036C21.2419 0.988069 21.4194 0.988069 21.5807 0.988069C21.6774 0.988069 21.7742 0.988069 21.8548 0.972036C22.5807 0.939971 23.3387 0.923938 24.0645 1.18046C24.4839 1.34079 24.629 1.59732 24.6774 1.78971C24.8065 2.28673 24.4032 2.79978 24.0484 3.18456C23.5 3.79381 22.9516 4.38702 22.4032 4.99627C21.3548 6.15063 20.2742 7.35309 19.1774 8.50746C17.1774 10.5757 15.0484 12.5638 12.8387 14.3755C12.7097 14.4717 12.4677 14.6801 12.1613 14.6801ZM1.54838 2.35086C1.54838 2.39896 1.58064 2.52722 1.7258 2.70358C3.91935 5.30089 6.33871 7.81804 8.67742 10.255C9.79032 11.4094 10.9355 12.5958 12.0323 13.7822C12.0645 13.8143 12.1129 13.8784 12.1452 13.8945C12.1774 13.8784 12.2258 13.8624 12.3226 13.7662C14.5161 11.9545 16.629 9.99851 18.5968 7.94631C19.6936 6.80798 20.7742 5.60552 21.8065 4.45116C22.3548 3.84191 22.9032 3.23266 23.4516 2.62342C23.9194 2.11037 23.9032 1.934 23.9032 1.934C23.9032 1.934 23.871 1.90194 23.7742 1.86987C23.1936 1.66145 22.5161 1.67748 21.8548 1.69351C21.7581 1.69351 21.6613 1.69351 21.5645 1.70955C21.371 1.70955 21.1774 1.70955 20.9839 1.69351C20.5 1.66145 20.0484 1.64541 19.7258 1.85384C19.4355 2.04623 19.1936 2.33482 18.9516 2.63945L18.9355 2.65548C17.3226 4.65958 15.5323 6.63162 13.4677 8.69985C13.3065 8.86018 13.0161 9.14877 12.5968 9.14877C12.1129 9.14877 11.7903 8.74795 11.6452 8.55555L7.83871 3.72968C7.29032 3.02424 6.77419 2.43102 6.09677 2.23863C5.69355 2.11037 5.24194 2.14243 4.79032 2.15846L1.67742 2.30276C1.6129 2.33482 1.56451 2.35086 1.54838 2.35086Z" fill="#3C4230"/>
</svg>
