<svg width="31" height="31" viewBox="0 0 31 31" fill="none" xmlns="http://www.w3.org/2000/svg">
<path d="M15.6291 30.1582C15.5323 30.1582 15.4355 30.1582 15.3388 30.1421C14.3065 30.0299 13.5001 29.3565 12.8388 28.8114C8.95167 25.5888 4.91941 22.254 1.72586 18.2137C5.65052e-05 16.0332 0.112961 14.0933 2.06457 12.2816L12.5323 2.58172C13.4678 1.71594 14.5001 0.866205 15.7742 0.914303C16.9355 0.962402 17.8549 1.78008 18.6936 2.59775L29.6775 13.3558C30.1613 13.8368 30.9194 14.5582 31 15.5042C31.113 16.8028 30.0968 17.7488 29.2742 18.5183C29.2097 18.5825 29.1291 18.6466 29.0646 18.7107C28.0968 19.6246 27.0807 20.5385 26.0968 21.4042C25.1775 22.2219 24.2097 23.0717 23.2904 23.9374C22.5646 24.6108 21.8388 25.3162 21.1452 25.9896C20.5968 26.5187 20.0323 27.0638 19.4839 27.5929C19.2904 27.7693 19.0968 27.9777 18.8871 28.2022C18.4355 28.6671 17.9678 29.1641 17.4355 29.5329C16.8226 29.9497 16.2259 30.1582 15.6291 30.1582ZM15.6452 1.66785C14.6936 1.66785 13.8388 2.38932 13.0484 3.12683L2.5807 12.8427C0.919414 14.3979 0.838768 15.8569 2.32264 17.7327C5.4678 21.7249 9.4678 25.0277 13.3226 28.2182C13.9033 28.6992 14.613 29.2924 15.4033 29.3725C15.9194 29.4206 16.4033 29.2764 16.9517 28.9076C17.4194 28.5709 17.871 28.122 18.2904 27.6731C18.5001 27.4486 18.7097 27.2402 18.9033 27.0478C19.4678 26.5187 20.0162 25.9896 20.5646 25.4445C21.2742 24.7711 22.0001 24.0657 22.7259 23.3763C23.6452 22.5105 24.613 21.6608 25.5484 20.8271C26.5323 19.9613 27.5323 19.0634 28.5 18.1496C28.5646 18.0854 28.6452 18.0213 28.7097 17.9572C29.4517 17.2678 30.2742 16.4982 30.1936 15.5843C30.1452 14.9751 29.6452 14.446 29.0968 13.9169L18.113 3.1589C17.3549 2.40535 16.5968 1.73198 15.6936 1.69991C15.6936 1.66785 15.6775 1.66785 15.6452 1.66785Z" fill="#3C4230"/>
</svg>
