<svg width="25" height="14" viewBox="0 0 25 14" fill="none" xmlns="http://www.w3.org/2000/svg">
<path d="M4.91926 13.9238C4.74184 13.9238 4.58055 13.9078 4.41925 13.9078C4.24184 13.8918 4.06442 13.8918 3.90313 13.8918C3.80635 13.8918 3.70958 13.8918 3.62893 13.9078C2.90313 13.9238 2.14506 13.9559 1.41925 13.6994C0.999898 13.539 0.854739 13.2825 0.806351 13.0901C0.677319 12.5931 1.08054 12.0801 1.43538 11.6953C1.98377 11.086 2.53216 10.4928 3.08054 9.88356C4.12893 8.7292 5.20958 7.52674 6.30635 6.37237C8.30635 4.30414 10.4354 2.31607 12.6451 0.504367C12.7902 0.392137 13.0644 0.151645 13.4354 0.215776C13.7096 0.263874 13.9031 0.456268 13.9999 0.568497C15.0967 1.75492 16.2418 2.94135 17.3547 4.07968C19.7096 6.51667 22.1289 9.04985 24.3386 11.6632C24.7257 12.1282 24.8064 12.6572 24.5322 12.9939C24.4193 13.1222 24.2096 13.2985 23.8064 13.3146L20.6935 13.4589C20.2096 13.4749 19.6612 13.507 19.1289 13.3466C18.1612 13.0581 17.4838 12.2083 16.9999 11.583L13.1935 6.75716C13.1289 6.677 12.9515 6.45254 12.8547 6.45254C12.758 6.45254 12.5967 6.61287 12.5322 6.677C10.4838 8.7292 8.70958 10.6852 7.1128 12.6572L7.09668 12.6733C6.82248 13.01 6.53216 13.3787 6.12893 13.6192C5.75797 13.8597 5.33861 13.9238 4.91926 13.9238ZM3.96764 13.1222C4.12893 13.1222 4.29022 13.1382 4.45151 13.1382C4.93538 13.1703 5.387 13.1863 5.70958 12.9779C5.9999 12.7855 6.24184 12.4969 6.48377 12.1923L6.4999 12.1762C8.1128 10.1721 9.90313 8.20011 11.9676 6.13188C12.1289 5.97155 12.4193 5.68296 12.8386 5.68296C13.3225 5.68296 13.6451 6.08378 13.7902 6.27618L17.5967 11.1021C18.1451 11.8075 18.6612 12.4007 19.3386 12.5931C19.7418 12.7214 20.1935 12.6893 20.6451 12.6733L23.758 12.529C23.8547 12.529 23.9031 12.5129 23.9193 12.4969C23.9193 12.4488 23.887 12.3205 23.7418 12.1442C21.5483 9.54687 19.1289 7.02972 16.7902 4.59273C15.6773 3.43837 14.5322 2.25194 13.4354 1.06552C13.4031 1.03345 13.3547 0.969319 13.3225 0.953286C13.2902 0.969319 13.2418 0.985352 13.1451 1.08155C10.9515 2.89326 8.83861 4.84926 6.87087 6.90146C5.77409 8.03978 4.69345 9.24225 3.66119 10.3966C3.1128 11.0059 2.56442 11.6151 2.01603 12.2243C1.54829 12.7374 1.56442 12.9138 1.56442 12.9138C1.56442 12.9138 1.59667 12.9458 1.69345 12.9779C2.27409 13.1863 2.95151 13.1703 3.59667 13.1543C3.69345 13.1543 3.79022 13.1542 3.887 13.1382C3.90313 13.1222 3.93538 13.1222 3.96764 13.1222Z" fill="#3C4230"/>
</svg>
